{"title":"The Toybox 2018 1080p WEB-DL DD 5.1 x264 [MW]","magnet":"magnet:?xt=urn:btih:9f0da1dfcf7e1b64be73e103e93bb266922dd41a&dn=The+Toybox+2018+1080p+WEB-DL+DD+5.1+x264+%5BMW%5D&tr=udp%3A%2F%2Ftracker.leechers-paradise.org%3A6969&tr=udp%3A%2F%2Fzer0day.ch%3A1337&tr=udp%3A%2F%2Fopen.demonii.com%3A1337&tr=udp%3A%2F%2Ftracker.coppersurfer.tk%3A6969&tr=udp%3A%2F%2Fexodus.desync.com%3A6969","uploader":"MFreaky","categoryP":"video","categoryS":"hd___movies","size":"2024716229","seeders":"0","leechers":"0","description":" <a href=\"https://pichub.site/image/EzuFu\" rel=\"nofollow\" target=\"_NEW\">https://pichub.site/image/EzuFu</a> <a href=\"\nhttps://pichub.site/image/Ezv3B\" rel=\"nofollow\" target=\"_NEW\">\nhttps://pichub.site/image/Ezv3B</a> <a href=\"\nhttps://pichub.site/image/EzUus\" rel=\"nofollow\" target=\"_NEW\">\nhttps://pichub.site/image/EzUus</a> <a href=\"\nhttps://pichub.site/image/Ez0IY\" rel=\"nofollow\" target=\"_NEW\">\nhttps://pichub.site/image/Ez0IY</a> <a href=\"\nhttps://pichub.site/image/EzL86\" rel=\"nofollow\" target=\"_NEW\">\nhttps://pichub.site/image/EzL86</a>\r\n\r\nIMDB <a href=\"\nhttps://www.imdb.com/title/tt6053472/\" rel=\"nofollow\" target=\"_NEW\">\nhttps://www.imdb.com/title/tt6053472/</a>\r\n\r\nVideo\r\nFormat                                   : AVC\r\nFormat/Info                              : Advanced Video Codec\r\nFormat profile                           : High@L4.1\r\nFormat settings                          : CABAC / 4 Ref Frames\r\nFormat settings, CABAC                   : Yes\r\nFormat settings, RefFrames               : 4 frames\r\nCodec ID                                 : V_MPEG4/ISO/AVC\r\nDuration                                 : 1 h 34 min\r\nBit rate                                 : 2 500 kb/s\r\nWidth                                    : 1 912 pixels\r\nHeight                                   : 808 pixels\r\nDisplay aspect ratio                     : 2.35:1\r\nFrame rate mode                          : Constant\r\nFrame rate                               : 23.976 (24000/1001) FPS\r\nColor space                              : YUV\r\nChroma subsampling                       : 4:2:0\r\nBit depth                                : 8 bits\r\nScan type                                : Progressive\r\nBits/(Pixel*Frame)                       : 0.067\r\nStream size                              : 1.63 GiB (86%)\r\nWriting library                          : x264 core 155 r2901 7d0ff22\r\n\r\nAudio\r\nFormat                                   : AC-3\r\nFormat/Info                              : Audio Coding 3\r\nCodec ID                                 : A_AC3\r\nDuration                                 : 1 h 34 min\r\nBit rate mode                            : Constant\r\nBit rate                                 : 384 kb/s\r\nChannel(s)                               : 6 channels\r\nChannel positions                        : Front: L C R, Side: L R, LFE\r\nSampling rate                            : 48.0 kHz\r\nFrame rate                               : 31.250 FPS (1536 SPF)\r\nBit depth                                : 16 bits\r\nStream size                              : 260 MiB (13%)\r\nLanguage                                 : English","last_updated":"2018-09-19T12:05:09.986Z","parsed":{"xt":"urn:btih:9f0da1dfcf7e1b64be73e103e93bb266922dd41a","dn":"The Toybox 2018 1080p WEB-DL DD 5.1 x264 [MW]","tr":["udp://exodus.desync.com:6969","udp://open.demonii.com:1337","udp://tracker.coppersurfer.tk:6969","udp://tracker.leechers-paradise.org:6969","udp://zer0day.ch:1337"],"infoHash":"9f0da1dfcf7e1b64be73e103e93bb266922dd41a","infoHashBuffer":{"type":"Buffer","data":[159,13,161,223,207,126,27,100,190,115,225,3,233,59,178,102,146,45,212,26]},"name":"The Toybox 2018 1080p WEB-DL DD 5.1 x264 [MW]","announce":["udp://exodus.desync.com:6969","udp://open.demonii.com:1337","udp://tracker.coppersurfer.tk:6969","udp://tracker.leechers-paradise.org:6969","udp://zer0day.ch:1337"],"urlList":[]}}